<svg width="67" height="19" viewBox="0 0 67 19" fill="none" xmlns="http://www.w3.org/2000/svg">
<path d="M5.50539 0C5.7884 0.0503911 6.06694 0.122331 6.33845 0.21516C6.76609 0.379922 7.13991 0.654959 7.42003 1.01093C7.70015 1.3669 7.87606 1.79046 7.92899 2.23641C8.00567 2.7751 7.90233 3.32358 7.63432 3.80034C7.36631 4.2771 6.94794 4.6567 6.44138 4.88272C6.01488 5.08501 5.53904 5.16705 5.0674 5.1196C4.59575 5.07216 4.14703 4.89711 3.77172 4.61417C3.44024 4.38687 3.17068 4.08389 2.98652 3.7316C2.80237 3.37932 2.70919 2.98841 2.71511 2.59292C2.70697 1.99172 2.9182 1.40733 3.31099 0.944334C3.70378 0.481339 4.25248 0.16997 4.85888 0.0659612C4.94733 0.0518266 5.03257 0.0235574 5.11941 0.00157025L5.50539 0Z" fill="#023047"/>
<path d="M7.38874 9.13267L11.1584 8.84684C11.1295 9.03373 11.1021 9.20492 11.0732 9.3761C10.9365 10.1755 10.8014 10.9749 10.6615 11.7743C10.5602 12.3601 10.454 12.9459 10.3398 13.5317C10.3264 13.6258 10.2811 13.7128 10.2111 13.7788C10.1412 13.8448 10.0506 13.8861 9.95387 13.896C9.25912 14.017 8.56436 14.1332 7.87121 14.2525C7.4 14.3326 6.9304 14.4096 6.4608 14.4991C6.43402 14.5082 6.40969 14.5231 6.38964 14.5427C6.36959 14.5623 6.35433 14.586 6.345 14.6122C6.20991 15.2404 6.08929 15.8686 5.95259 16.4968C5.77891 17.2821 5.29644 17.8098 4.49232 17.9982C4.03152 18.0939 3.5646 18.159 3.09477 18.193C2.25366 18.2731 1.41256 18.3327 0.53125 18.405C0.568239 18.171 0.595578 17.9731 0.63096 17.7768C0.754793 17.0732 0.881844 16.3633 1.00568 15.666C1.15149 14.8284 1.2973 13.996 1.44312 13.1689L1.81462 11.0393C1.94756 10.2812 2.08212 9.52164 2.21828 8.76046C2.28261 8.39924 2.3196 8.03174 2.50616 7.70037C2.66073 7.41554 2.88601 7.17313 3.16135 6.99533C3.4367 6.81754 3.75332 6.71004 4.08222 6.68267C4.64832 6.612 5.20798 6.52562 5.77569 6.43139C6.3434 6.33716 6.87893 6.25864 7.43217 6.17697C7.64606 6.14556 7.75381 6.27748 7.72326 6.49107C7.6541 6.96223 7.5946 7.42396 7.53188 7.89197C7.48845 8.20607 7.44664 8.53431 7.40483 8.85626C7.40483 8.93322 7.40483 9.02274 7.38874 9.13267Z" fill="#023047"/>
<path d="M18.0727 8.68164H20.6056C20.5622 8.95648 20.522 9.22033 20.4786 9.48103C20.3177 10.4359 20.1666 11.3908 19.9961 12.3425C19.7999 13.4419 19.6133 14.5506 19.3769 15.6406C19.0794 17.0226 18.137 17.8047 16.7716 18.1283C15.7023 18.4058 14.5744 18.3824 13.5181 18.0607C12.5725 17.7623 11.8954 17.1813 11.6622 16.195C11.5553 15.6677 11.5553 15.125 11.6622 14.5978C11.815 13.6727 11.9759 12.7477 12.1351 11.8227C12.3055 10.8301 12.4776 9.83858 12.6513 8.84811C12.6593 8.79786 12.6658 8.7476 12.6754 8.69106H15.8276C15.7857 8.95177 15.7472 9.20462 15.7053 9.45433C15.5702 10.271 15.4335 11.0877 15.2952 11.9043C15.173 12.6393 15.0492 13.3743 14.9286 14.103C14.8739 14.4297 14.8224 14.7548 14.7822 15.083C14.761 15.2766 14.8191 15.4706 14.9439 15.6224C15.0686 15.7743 15.2499 15.8717 15.448 15.8934C15.7146 15.936 15.9867 15.9328 16.2521 15.884C16.6751 15.8008 16.8665 15.471 16.9485 15.0893C17.0659 14.5444 17.1656 13.99 17.2701 13.4466C17.4487 12.4383 17.6207 11.43 17.7928 10.4202C17.8797 9.84382 17.9746 9.26587 18.0727 8.68164Z" fill="#023047"/>
<path d="M43.6399 12.3682C43.5209 13.111 43.4051 13.8177 43.2989 14.5229C43.2796 14.6423 43.2298 14.669 43.1172 14.6674C42.2455 14.6674 41.3739 14.6674 40.5038 14.6674H40.2545C40.0519 15.8327 39.8503 16.9954 39.6499 18.1555H36.6328C36.8531 16.8661 37.0767 15.5861 37.2922 14.3046C37.4627 13.2916 37.6235 12.2771 37.7923 11.2641C37.913 10.5479 38.04 9.83335 38.1638 9.1172C38.1856 9.02318 38.1996 8.92759 38.2057 8.83137C38.2057 8.69787 38.2684 8.67432 38.3906 8.67432C40.5896 8.67432 42.7875 8.67432 44.9844 8.67432C45.0342 8.67432 45.0857 8.67432 45.1452 8.68531C45.0165 9.47057 44.8895 10.2448 44.7624 11.0285H40.8801L40.6228 12.3682H43.6399Z" fill="#023047"/>
<path d="M59.2914 18.1563C59.3686 17.6852 59.4426 17.2329 59.5181 16.779C59.6414 16.0335 59.7658 15.287 59.8912 14.5395C59.8989 14.4775 59.9107 14.4161 59.9266 14.3557C60.0279 14.0416 59.9266 13.7636 59.8076 13.4731C59.1434 11.9277 58.4921 10.3776 57.8375 8.8275C57.8198 8.78667 57.8054 8.74426 57.7812 8.68301C57.8488 8.68301 57.9035 8.67202 57.9565 8.67202C58.9215 8.67202 59.8864 8.67202 60.8514 8.67202C60.8987 8.66497 60.9471 8.67583 60.9865 8.70239C61.026 8.72895 61.0535 8.7692 61.0636 8.81494C61.3853 9.6693 61.7182 10.5189 62.0447 11.3717C62.0913 11.4927 62.1235 11.6183 62.1669 11.7596C62.1909 11.7366 62.212 11.7107 62.2296 11.6827C62.466 11.1 62.8633 10.6116 63.209 10.0918C63.5017 9.65359 63.8041 9.22013 64.108 8.78824C64.1279 8.75995 64.1534 8.7358 64.1829 8.71719C64.2125 8.69859 64.2455 8.6859 64.2801 8.67987C65.1695 8.67987 66.0572 8.67987 66.9803 8.67987C66.9257 8.76625 66.8854 8.83692 66.8372 8.90132C65.6235 10.5765 64.4077 12.2554 63.1897 13.9379C63.0289 14.1672 63.0289 14.4327 62.9823 14.6871C62.778 15.8288 62.5818 16.9722 62.384 18.1155C62.379 18.132 62.3731 18.1483 62.3663 18.1642L59.2914 18.1563Z" fill="#023047"/>
<path d="M30.2852 8.68164H33.4309C33.032 11.0091 32.6364 13.3241 32.2376 15.6579H35.8062C35.676 16.4997 35.5473 17.321 35.417 18.1518H28.6914C29.2237 14.9935 29.7577 11.8447 30.2852 8.68164Z" fill="#023047"/>
<path d="M22.3486 8.67969H25.4927C25.097 11.0072 24.6998 13.3221 24.2929 15.659H27.8664C27.8359 15.8805 27.8085 16.0799 27.778 16.2794C27.6879 16.8526 27.5946 17.4243 27.5062 17.9975C27.4901 18.1028 27.4644 18.164 27.3277 18.164C25.1834 18.164 23.0444 18.164 20.9108 18.164C20.8642 18.164 20.8192 18.164 20.75 18.1546C21.2893 14.9895 21.8222 11.8312 22.3486 8.67969Z" fill="#023047"/>
<path d="M53.0234 15.6656H56.5969C56.4634 16.5059 56.3331 17.3288 56.2013 18.1549H49.4805C49.5995 17.4403 49.7169 16.7414 49.8359 16.0316L50.2412 13.6271C50.365 12.8937 50.4904 12.1587 50.6127 11.4284C50.7478 10.6322 50.8828 9.8359 51.0115 9.03965C51.0694 8.67686 51.063 8.67529 51.4377 8.67529H54.2183L53.0234 15.6656Z" fill="#023047"/>
<path d="M44.6797 18.1562C44.7746 17.5892 44.8695 17.0317 44.9627 16.4726C45.1123 15.5884 45.2587 14.7042 45.4082 13.82C45.5304 13.0991 45.6591 12.3798 45.7813 11.6574C45.8923 11.004 45.9984 10.3491 46.103 9.69267C46.1528 9.39113 46.1962 9.08645 46.2541 8.78648C46.2624 8.7602 46.2776 8.73651 46.2982 8.71777C46.3188 8.69903 46.3441 8.68589 46.3715 8.67969C47.3059 8.67969 48.2419 8.67969 49.1763 8.67969C49.1946 8.68562 49.2123 8.69297 49.2294 8.70167C48.6997 11.8427 48.169 14.9947 47.6372 18.1577L44.6797 18.1562Z" fill="#023047"/>
<path d="M15.2509 3.52588C15.275 3.87296 15.3007 4.2012 15.3184 4.53101C15.3474 5.06027 15.3876 5.58953 15.394 6.1188C15.4037 6.747 14.8231 7.30139 14.1718 7.33437C13.0331 7.39248 11.9074 7.46787 10.7655 7.53854C10.2831 7.56524 9.81186 7.5888 9.31813 7.61392C9.29883 7.33908 9.27953 7.07367 9.26345 6.80825C9.23129 6.28998 9.22003 5.77014 9.16696 5.25501C9.14832 5.07404 9.16808 4.89125 9.22498 4.71806C9.28189 4.54487 9.37473 4.38499 9.49771 4.24839C9.62069 4.11179 9.77118 4.0014 9.93978 3.92411C10.1084 3.84681 10.2915 3.80428 10.4777 3.79915C11.7643 3.75046 13.0637 3.65152 14.3567 3.57457C14.6414 3.55258 14.9373 3.54158 15.2509 3.52588Z" fill="#023047"/>
</svg>
