<svg width="26" height="24" viewBox="0 0 26 24" fill="none" xmlns="http://www.w3.org/2000/svg">
<g clip-path="url(#clip0_1724_22681)">
<path d="M9.76562 20.25C9.76562 20.3826 9.71295 20.5098 9.61918 20.6036C9.52541 20.6973 9.39823 20.75 9.26562 20.75C9.13302 20.75 9.00584 20.6973 8.91207 20.6036C8.8183 20.5098 8.76562 20.3826 8.76562 20.25C8.76562 20.1174 8.8183 19.9902 8.91207 19.8964C9.00584 19.8027 9.13302 19.75 9.26562 19.75C9.39823 19.75 9.52541 19.8027 9.61918 19.8964C9.71295 19.9902 9.76562 20.1174 9.76562 20.25ZM19.5156 20.25C19.5156 20.3826 19.4629 20.5098 19.3692 20.6036C19.2754 20.6973 19.1482 20.75 19.0156 20.75C18.883 20.75 18.7558 20.6973 18.6621 20.6036C18.5683 20.5098 18.5156 20.3826 18.5156 20.25C18.5156 20.1174 18.5683 19.9902 18.6621 19.8964C18.7558 19.8027 18.883 19.75 19.0156 19.75C19.1482 19.75 19.2754 19.8027 19.3692 19.8964C19.4629 19.9902 19.5156 20.1174 19.5156 20.25Z" fill="#023047" stroke="#023047" stroke-width="2"/>
<path d="M5.73163 6.75H22.5496L20.0746 15.412C19.9865 15.7264 19.7976 16.0032 19.5369 16.1997C19.2762 16.3963 18.9581 16.5018 18.6316 16.5H9.64962C9.32312 16.5018 9.00506 16.3963 8.74435 16.1997C8.48364 16.0032 8.29471 15.7264 8.20662 15.412L4.81262 3.544C4.76782 3.38714 4.67309 3.24917 4.5428 3.151C4.41251 3.05283 4.25376 2.99982 4.09063 3H2.51562" stroke="#023047" stroke-width="2" stroke-linecap="round" stroke-linejoin="round"/>
</g>
<defs>
<clipPath id="clip0_1724_22681">
<rect width="25" height="24" fill="white" transform="translate(0.765625)"/>
</clipPath>
</defs>
</svg>
