<svg width="28" height="22" viewBox="0 0 28 22" fill="none" xmlns="http://www.w3.org/2000/svg">
<rect x="5.5625" y="9.43408" width="16.5242" height="11.5217" fill="#023047"/>
<rect x="7.55078" y="12.3335" width="2.02422" height="2.24248" fill="white"/>
<path d="M14.282 0L25.9808 9.62721H2.58324L14.282 0Z" fill="#023047"/>
<rect x="14.6953" y="11.5601" width="7.55984" height="9.39523" fill="white"/>
<rect x="15.5625" y="12.4888" width="6.69232" height="8.46731" fill="#023047"/>
<path d="M15.8711 17.1464L15.8711 15.3999" stroke="white" stroke-width="0.342429" stroke-linecap="round" stroke-linejoin="round"/>
<path d="M19.5961 17.6924L21.3281 17.6924" stroke="white" stroke-width="0.342429" stroke-linecap="round" stroke-linejoin="round"/>
<path d="M18.7806 20.9753C18.7806 21.4538 18.3285 21.8711 17.732 21.8711C17.1355 21.8711 16.6834 21.4538 16.6834 20.9753C16.6834 20.4967 17.1355 20.0794 17.732 20.0794C18.3285 20.0794 18.7806 20.4967 18.7806 20.9753Z" fill="#023047" stroke="white" stroke-width="0.257521"/>
<path d="M22.6289 14.5762H24.6531L27.1731 16.664V20.9556H22.6289V14.5762Z" fill="#023047"/>
<path d="M26.2142 20.9753C26.2142 21.4538 25.7621 21.8711 25.1656 21.8711C24.5691 21.8711 24.117 21.4538 24.117 20.9753C24.117 20.4967 24.5691 20.0794 25.1656 20.0794C25.7621 20.0794 26.2142 20.4967 26.2142 20.9753Z" fill="#023047" stroke="white" stroke-width="0.257521"/>
<path d="M23.4531 15.002H24.4859L26.3862 16.6258H23.4531V15.002Z" fill="white"/>
</svg>
